P1
56 128
00000000000001111111111111111111111110000000000001110000
00000000000111111111111111111111111111100000000111110000
00000000011111111111111111111111111111110000111111111000
00000000111111111111111111111111111111111001111111111000
00000001111111111111111111111111111111111101111111111000
00000011111111111111111111111111111111111111111111111000
00000111111111111111111111111111111111111111111111111000
00001111111111111111111111111111111111111111111111111100
00001111111111111111111111111111111111111111111111111100
00011111111111111111111111111111111111111111111111111100
00011111111111111111000000000011111111111111111111111100
00011111111111100000000000000000000111111111111111111110
00111111111110000000000000000000000001111111111111111110
00111111111000000000000000000000000000011111111110000000
00111111110000000000000000000000000000011111111110000000
01111111110000000000000000000000000000001111111100000000
01111111100000000000000000000000000000000111111100000000
01111111001111111111111111111111111111100111111000000000
01111111001111111111111111111111111111100111111000000000
11111111001111111111111111111111111111100011111000000000
11111111001111111111111111111111111111100011111000000000
11111111001111111111111111111111111111100011111000000000
11111111001111111111111111111111111111100011111100000000
11111111001111111111111111111111111111100011111100000000
11111111001111111111111111111111111111100011111110000000
11111111001111111111111111111111111111100011111110000000
11111111000000000000011111111000000000000011111111000001
11111111000000000000001111110000000000000011111111111111
11111111000000000000001111110000000000000011111111111111
11111111000000000000001111110000000000000011111111111111
11111111000000000000001111110000000000000011111111111111
11111111000000000000001111110000000000000011111111111111
11111110000000000000001111110000000000000011111111111111
11111110000000000000001111110000000000000011111111111111
11111110000000000000001111110000000000000011111111111111
11111111000000000000001111110000000000000011111111111111
11111111000000000000001111110000000000000011111111111111
11111111000000000000001111110000000000000011111111111111
11111111000000000000001111110000000000000011111111111111
11111111000000000000001111110000000000000011111111111111
11111111000000000000011111111000000000000011111111000001
11111111001111111111111111111111111111100011111110000000
11111111001111111111111111111111111111100011111100000000
11111111001111111111111111111111111111100011111100000000
11111111001111111111111111111111111111100011111100000000
11111111001111111111111111111111111111100011111000000000
11111111001111111111111111111111111111100011111000000000
01111111001111111111111111111111111111100011111000000000
01111111001111111111111111111111111111100111111000000000
01111111100000000000000000000000000000000111111100000000
01111111100000000000000000000000000000000111111100000000
01111111110000000000000000000000000000001111111100000000
00111111111000000000000000000000000000011111111110000000
00111111111100000000000000000000000000111111111110000000
00111111111111100000000000000000000111111111111111111110
00011111111111111111000000000011111111111111111111111110
00011111111111111111111111111111111111111111111111111100
00001111111111111111111111111111111111111111111111111100
00001111111111111111111111111111111111111111111111111100
00001111111111111111111111111111111111111111111111111000
00000111111111111111111111111111111111111111111111111000
00000011111111111111111111111111111111111111111111111000
00000001111111111111111111111111111111111101111111111000
00000000111111111111111111111111111111111001111111111000
00000000011111111111111111111111111111110000111111111000
00000000000111111111111111111111111111000000011111110000
00000000000001111111111111111111111110000000000111110000
00000000000000011111111111111111111100000000000001110000
00000000000000000011111111111111110000000000000000000000
00000000000000000000000000000000000000000000000000000000
00000000000000000000000000000000000000000000000000000000
00000000000000000000000000000000000000001110000001110000
00000000000000000000000000000000000000111110000011111000
00000000000000000000000000000000000000111110001111111110
00000000000000000000000000000000000001111110011111111110
00000000000000000000000000000000000011111000011110011110
00000000000000000000000000000000000011110000001110001110
00000000000000000000000000000000000011110000100010001110
00000000000000000000000000000000000011111000111000111110
00000000000000000000000000000000000001111111111100111110
00000000000000000000000000000000000001111111111000111100
00000000000000000000000000000000000000111111111000111000
00000000000000000000000000000000000000111111110000100000
00000000000000000000000000000000000000000000000000000000
00000000000000000000000000000000000000000000000000000000
00000000000000000000000000000000000001111111111111111110
00000000000000000000000000000000000001111111111111111110
00000000000000000000000000000000000001111111111111111110
00000000000000000000000000000000000001111111111111111110
00000000000000000000000000000000000000000000000000000000
00000000000000000000000000000000000000000000000000000000
00000000000000000000000000000000000001000000000000000000
00000000000000000000000000000000000001110000000000000110
00000000000000000000000000000000000001111000000000001110
00000000000000000000000000000000000001111110000000111110
00000000000000000000000000000000000001111111100001111110
00000000000000000000000000000000000000111111000011111110
00000000000000000000000000000000000000001110001111111000
00000000000000000000000000000000000000000000011111110000
00000000000000000000000000000000000000000000111111100000
00000000000000000000000000000000000000000011111100000000
00000000000000000000000000000000000000000111111100100000
00000000000000000000000000000000000000001111110001111000
00000000000000000000000000000000000000111111100011111110
00000000000000000000000000000000000001111110000000111110
00000000000000000000000000000000000001111100000000011110
00000000000000000000000000000000000001111000000000001110
00000000000000000000000000000000000001100000000000000010
00000000000000000000000000000000000001000011100111000000
00000000000000000000000000000000000000001111100111110000
00000000000000000000000000000000000000011111100111111000
00000000000000000000000000000000000000011111100111111100
00000000000000000000000000000000000000111111000011111100
00000000000000000000000000000000000001111110000001111110
00000000000000000000000000000000000001111000000000111110
00000000000000000000000000000000000011111000000000011110
00000000000000000000000000000000000011110000000000001110
00000000000000000000000000000000000011110000000000001110
00000000000000000000000000000000000011110000000000001110
00000000000000000000000000000000000011111000000000011110
00000000000000000000000000000000000001111000000000011110
00000000000000000000000000000000000001111100000000111110
00000000000000000000000000000000000000111110000001111110
00000000000000000000000000000000000000111111100111111100
00000000000000000000000000000000000000001111100111111000
00000000000000000000000000000000000000001111100111110000
00000000000000000000000000000000000000000011100111000000
00000000000000000000000000000000000000000000000000000000
