P1
56 128
00000000000000000000001111111111110000000000000000000000
00000000000000000001111111111111111110000000000000000000
00000000000000001111111111111111111111110000000000000000
00000000000000111111111111111111111111111100000000000000
00000000000001111111111111111111111111111110000000000000
00000000000111111111111111111111111111111111100000000000
00000000001111111111111111111111111111111111110000000000
00000000011111111111111111111111111111111111111000000000
00000000111111111111111111111111111111111111001100000000
00000001111111111111111111111111111111111110000110000000
00000011111111111111111111111111111111111100010011000000
00000111111111111111111111111111111111111000111001100000
00000111111111111111111100000100111111110000011001100000
00001111111111111111100000000010100111100011000001110000
00011111111111111110000000000101010101100111100011111000
00011111111111111100000000000010101010110011101111111000
00111111111111111000000000000101010101011000001111111100
00111111111111110000000000000010101010101100011111111100
00111111111111100000000000000101010101010111111111111100
01111111111111000000000000000010101010101011111111111110
01111111111111000000000000000101010101010111111111111110
01111111111110000000000000000010101010101001111111111110
11111111111110000000000000000101010101010101111111111111
11111111111110000000000000000010101010101011111111111111
11111111111100000000000000000101010101010100110000000001
11111111111100000000000000000010101010101010110000000001
11111111111100000000000000000101010101010100111111100011
11111111111100000000000000000010101010101011111100001111
11111111111110101010101010101000000000000000111100001111
11111111111101010101010101010000000000000000111111100011
11111111111100101010101010101000000000000000110000000001
11111111111101010101010101010000000000000000110000000001
11111111111110101010101010101000000000000001111111111111
11111111111111010101010101010000000000000001111111111111
01111111111110101010101010101000000000000001111111111110
01111111111111010101010101010000000000000011111111111110
01111111111111001010101010101000000000000011111111111110
00111111111111110101010101010000000000000111011111111100
00111111111111110010101010101000000000001110001111111100
00111111111111111101010101010000000000011110000011111100
00011111111111111100101010101000000000111110010000111000
00011111111111111110010101010000000001111110111100011000
00001111111111111111100010101000000111100000011110010000
00000111111111111111111100010000111111100000001111100000
00000111111111111111111111111111111111100111001111100000
00000011111111111111111111111111111111110011111111000000
00000001111111111111111111111111111111110001111110000000
00000000111111111111111111111111111111111001111100000000
00000000011111111111111111111111111111111100011000000000
00000000001111111111111111111111111111111110010000000000
00000000000111111111111111111111111111111111100000000000
00000000000001111111111111111111111111111110000000000000
00000000000000111111111111111111111111111100000000000000
00000000000000001111111111111111111111110000000000000000
00000000000000000001111111111111111110000000000000000000
00000000000000000000001111111111110000000000000000000000
00000000000000000000000000000000000000000000000000000000
00000000000000000000000000000000000000000000000000000000
00000000000000000000000000000000000000000000000000000000
00000000000000000000000000000000000000000000000000000000
00000000000000000000000000000000000000000000000000000000
00000000000000000000000000000000000001110000000111100000
00000000000000000000000000000000000111110000011111111000
00000000000000000000000000000000000111110000111111111100
00000000000000000000000000000000001111110000111111111110
00000000000000000000000000000000001111100001111111111110
00000000000000000000000000000000011111000000111000011110
00000000000000000000000000000000011111000000001000011110
00000000000000000000000000000000011111000010000000011110
00000000000000000000000000000000011111000011000001111110
00000000000000000000000000000000001111111111110001111110
00000000000000000000000000000000001111111111110001111100
00000000000000000000000000000000000111111111100001111000
00000000000000000000000000000000000011111111000001100000
00000000000000000000000000000000000000111100000000000000
00000000000000000000000000000000000000000000000000000000
00000000000000000000000000000000000000000000000000000000
00000000000000000000000000000000001111111111111111111110
00000000000000000000000000000000001111111111111111111110
00000000000000000000000000000000001111111111111111111110
00000000000000000000000000000000001111111111111111111110
00000000000000000000000000000000001111111111111111111110
00000000000000000000000000000000000000000000000000000000
00000000000000000000000000000000000000000000000000000000
00000000000000000000000000000000001100000000000000000010
00000000000000000000000000000000001110000000000000000110
00000000000000000000000000000000001111000000000000001110
00000000000000000000000000000000001111100000000000111110
00000000000000000000000000000000001111111000000001111110
00000000000000000000000000000000001111111110000111111110
00000000000000000000000000000000000011111100001111111100
00000000000000000000000000000000000001110000011111110000
00000000000000000000000000000000000000100001111111100000
00000000000000000000000000000000000000000011111111000000
00000000000000000000000000000000000000000111111110000000
00000000000000000000000000000000000000011111111000000000
00000000000000000000000000000000000000111111110000100000
00000000000000000000000000000000000001111111000001111000
00000000000000000000000000000000000111111110000111111100
00000000000000000000000000000000001111111100000011111110
00000000000000000000000000000000001111110000000000111110
00000000000000000000000000000000001111000000000000011110
00000000000000000000000000000000001111000000000000001110
00000000000000000000000000000000001100000000000000000110
00000000000000000000000000000000001000001110011110000010
00000000000000000000000000000000000000111110011111100000
00000000000000000000000000000000000001111110011111110000
00000000000000000000000000000000000011111110011111111000
00000000000000000000000000000000000111111110011111111100
00000000000000000000000000000000000111111000000111111100
00000000000000000000000000000000001111111000000011111100
00000000000000000000000000000000001111100000000001111110
00000000000000000000000000000000001111000000000000111110
00000000000000000000000000000000011111000000000000111110
00000000000000000000000000000000011111000000000000011110
00000000000000000000000000000000011111000000000000011110
00000000000000000000000000000000011111000000000000011110
00000000000000000000000000000000011111000000000000111110
00000000000000000000000000000000001111100000000000111110
00000000000000000000000000000000001111100000000000111110
00000000000000000000000000000000001111110000000001111100
00000000000000000000000000000000000111111100000111111100
00000000000000000000000000000000000011111110011111111000
00000000000000000000000000000000000001111110011111110000
00000000000000000000000000000000000000111110011111100000
00000000000000000000000000000000000000001110011110000000
00000000000000000000000000000000000000000000000000000000
00000000000000000000000000000000000000000000000000000000
