P1
56 128
00000000000000000000000000000000000000000000000000000000
00000000000000000000000000000000000000000000000000000000
00000000000000000000000011100000000000000000000000000000
00000000000000000000011111100000000000000111111100000000
00000000000000000001111111100000000000111111111111000000
00000000000000000011111111100000000001111111111111110000
00111111111110000111111111100000000011111111111111111000
00111111000010000111111111100000000111111111111111111100
00111110000110001111111111100000001111111111111111111100
00000000011110011111111111100000001111111111111111111110
00000001111000011111111111100000011111111111111111111110
00000111100000011111111110000000011111111111111111111111
00011110000000111111111100000000001111111100001111111111
00111000000000111111111000000000000011111000000111111111
00100000000000111111111000000000000000111000000111111111
00111111111110111111111000000000000000001000000111111111
00000000000000111111111000000000000000000000000111111111
00000000000000111111111000000001100000000000011111111111
00000000000000111111111100000011111000000000111111111110
00000000000000011111111110000111111110000000111111111110
00000000000000011111111111111111111111100000111111111110
00111110000000011111111111111111111111100000111111111100
00111111000000001111111111111111111111000000111111111000
00111111111110001111111111111111111110000000111111110000
00100001000010000111111111111111111110000000111111100000
00100001000010000011111111111111111100000000111110000000
00100001000010000001111111111111111000000000110000000000
00111111110010000000011111111111100000000000000000000000
00000001000000000000000111111110000000000000000000000000
00000001000000000000000000000000000000000000000000000000
00000000000000000000000000000000000000000000000000000000
00000000000000000000000000000000000000000000000000000000
00000000000000000000000000000000000000000000000000000000
00000000000000011111111111111111111111111111111111111110
00111111111110011111111111111111111111111111111111111110
00111111000000011111111111111111111111111111111111111110
00111111000000011111111111111111111111111111111111111110
00000001000000011111111111111111111111111111111111111110
00000001000000011111111111111111111111111111111111111110
00000001111110011111111111111111111111111111111111111110
00000001000000011111111111111111111111111111111111111110
00111111000000011111111111111111111111111111111111111110
00000000000000000000000000000000000000000000000000000000
00000000000000000000000000000000000000000000000000000000
00000000000000000000000000000000000000000000000000000000
00000000000000010000000000000000000000000000000000000000
00000000000000011000000000000000000000000000000000000010
00111111111110011110000000000000000000000000000000000110
00111111000010011111000000000000000000000000000000001110
00111110000010011111100000000000000000000000000000111110
00100000000010011111111000000000000000000000000001111110
00100000000010011111111100000000000000000000000011111110
00100000000010011111111110000000000000000000001111111110
00100000000010011111111111100000000000000000011111111110
00100000000010011111111111110000000000000000111111111110
00111111111110011111111111111000000000000011111111111110
00000000000000001111111111111111000000000111111111111110
00111111100000000011111111111110000000001111111111111100
00111111100000000001111111111100000000111111111111111000
00100100100000000000111111111000000001111111111111100000
00100100100000000000001111100000000011111111111111000000
00100100100000000000000111000000001111111111111110000000
00110111100000000000000010000000011111111111111000000000
00000000000000000000000000000001111111111111110000000000
00000111100000000000000000000011111111111111100000000000
00111111100000000000000000000111111111111110000000000000
00100000000000000000000000011111111111111100000000000000
00100000000000000000000000111111111111110000000000000000
00111000000000000000000001111111111111100000000000000000
00000111100000000000000111111111111111000000001100000000
00000000000000000000001111111111111100000000011111000000
00111111100000000000011111111111111000000001111111100000
00111111100000000001111111111111110000000011111111110000
00100100100000000011111111111111000000001111111111111100
00100100100000000111111111111110000000000111111111111110
00100100100000011111111111111100000000000011111111111110
00110111100000011111111111110000000000000001111111111110
00000000000000011111111111100000000000000000011111111110
00111111111110011111111111000000000000000000001111111110
00111100000000011111111100000000000000000000000011111110
00000000000000011111111000000000000000000000000001111110
00111111100000011111100000000000000000000000000000111110
00100000100000011111000000000000000000000000000000001110
00100000100000011110000000000000000000000000000000000110
00100000100000011000000000000001100001100000000000000010
00100000100000010000000000001111100001111100000000000000
00111111100000000000000001111111100001111111100000000000
00000000000000000000000011111111100001111111110000000000
00000000000000000000001111111111100001111111111100000000
00000000000000000000011111111111100001111111111110000000
11111111100000000000111111111111100001111111111111000000
11100000100000000001111111111111100001111111111111100000
00100000100000000011111111111111100001111111111111110000
00100000100000000011111111111110000000011111111111110000
00111111100000000111111111111000000000000111111111111000
00000000000000001111111111110000000000000011111111111100
00000000000000001111111111000000000000000000111111111100
00111111100000011111111111000000000000000000111111111110
00111100100000011111111110000000000000000000011111111110
00000000100000011111111100000000000000000000001111111110
00000000100000011111111100000000000000000000001111111110
00111111100000111111111100000000000000000000001111111111
00000000100000111111111000000000000000000000000111111111
00000000100000111111111000000000000000000000000111111111
00000000100000111111111000000000000000000000000111111111
00111111100000111111111000000000000000000000000111111111
00000000000000111111111000000000000000000000000111111111
00111111100000111111111000000000000000000000000111111111
00111111100000111111111000000000000000000000000111111111
00100100100000111111111100000000000000000000001111111111
00100100100000011111111100000000000000000000001111111110
00100100100000011111111110000000000000000000011111111110
00110111100000011111111110000000000000000000011111111110
00000000000000001111111111000000000000000000111111111100
00111111100000001111111111100000000000000001111111111100
00111100100000000111111111111000000000000111111111111000
00000000100000000111111111111100000000001111111111111000
00000000100000000011111111111111100001111111111111110000
00111111100000000001111111111111100001111111111111100000
00000000000000000000111111111111100001111111111111000000
00000000100000000000011111111111100001111111111110000000
00111111110000000000001111111111100001111111111100000000
00100001100000000000000111111111100001111111111000000000
00100001100000000000000001111111100001111111100000000000
00000000000000000000000000011111100001111110000000000000
00000000000000000000000000000011100001110000000000000000
00000000000000000000000000000000000000000000000000000000
00000000000000000000000000000000000000000000000000000000
