P1
#CreatedbyIrfanView
16 16
0000000000000000
0000000000000000
0000000000000000
0000000000000000
0011111101111110
0111111111111111
0111111101111111
0111000000000111
0111000000000111
0111000000000111
0111111101111111
0111111111111111
0011111101111110
0000000000000000
0000000000000000
0000000000000000