P1
#CreatedbyIrfanView
16 16
0000000000000000
0000000000000000
0000000000000000
0000000000000000
0010000001111110
0111000011111111
0111000111111111
0111000111000111
0111000111000111
0111000111000111
0111111111000111
0111111110000111
0011111100000010
0000000000000000
0000000000000000
0000000000000000