P1
# Created by IrfanView
16 16
00000000 00000000 
00000000 00000000 
00100000 00000000
00010111 11000000
00001111 11100000 
00011100 01110000
00011010 00110000
00011001 00110000
00011000 10110000
00011100 01110000 
00001111 11100000
00000111 11010000
00000000 00001000
00000000 00000000
00000000 00000000
00000000 00000000 