P1
# Created by IrfanView
16 16
00000111 11100000 
00011111 11111000 
00111000 00011100 
01100000 00000110 
01100000 00000110 
11000000 00000011 
11000000 00000011 
11000001 11111111 
11000001 11111111 
11000001 10000011 
11000001 10000011 
01100001 10000110 
01100001 10000110 
00111000 00011100 
00011111 11111000 
00000111 11100000 