P1
# Created by IrfanView
16 16
01110000 00000000 
11111100 00000000 
11001111 00000000 
11000011 11000000 
11000000 11110000 
11000000 00111100 
11000000 00001110 
11000000 00000011 
11000000 00000011 
11000000 00001110 
11000000 00111100 
11000000 11110000 
11000011 11000000 
11001111 00000000 
11111100 00000000 
01110000 00000000 