P1
# Created by IrfanView
16 16
00000111 11100000 
00011111 11111000 
00111000 00011100 
01110000 00001110 
01100000 00000110 
11000000 00000011 
11000000 00000011 
11000000 00000011 
11000000 00000011 
11000000 00000011 
11000000 00000011 
01100000 00000110 
01110000 00001110 
00111000 00011100 
00011111 11111000 
00000111 11100000 