P1
# Created by IrfanView
16 16
00000111 11100000 
00011111 11111000 
00111100 00111100 
01111100 00111110 
01111100 00111110 
11111100 00111111 
11111100 00111111 
11111100 00111111 
11111100 00111111 
11111100 00111111 
11111100 00111111 
01111100 00111110 
01111100 00111110 
00111100 00111100 
00011111 11111000 
00000111 11100000 