P1
# Created by IrfanView
16 16
00000111 11100000 
00001111 11110000 
00011111 11111000 
00110111 11101100 
01100011 11000110 
11110001 10001111 
11111000 00011111 
11111100 00111111 
11111100 00111111 
11111000 00011111 
11110001 10001111 
01100011 11000110 
00110111 11101100 
00011111 11111000 
00001111 11110000 
00000111 11100000 