P1
#CreatedbyIrfanView
16 16
00000111 11100000
00001010 00010000
00011010 11011000
00111000 11011100
01111111 11011110
11111000 00011111
11111111 11011111
11111111 11111111
11111000 00011111
11111011 11011111
11111000 00011111
01111111 11111110
00111000 00011100
00011110 11011000
00001110 00010000
00000111 11100000