P1
# Created by IrfanView
16 16
00011111 11111000 
00001111 11110000 
00000111 11100000
00000011 11000000
00000001 10000000 
00000000 00000000
00100000 00000000
00111111 11111100
00111111 11000100
00111111 11000100 
00111111 11000100
00111111 11000100
00111111 11111100
10010000 00000000
00100000 01110000
00011111 11100000 