P1
# Created by IrfanView
16 16
00100000 00000000 
00111111 11111100 
00111111 11000100
00111111 11000100
00111111 11000100 
00111111 11000100
00111111 11111100
00100100 00000000
00001000 00011100
00000111 11111000 
00000000 00000000
00011111 11111000
00001111 11110000
00000111 11100000
00000011 11000000
00000001 10000000 