P1
# Created by IrfanView
16 16
00000111 11100000 
00001111 11110000 
00011111 11111000 
00111111 11111100 
01111111 11111110 
11111111 11111111 
11111111 11111111 
11111111 11111111 
11111111 11111111 
11111111 11111111 
11111111 11111111 
01111111 11111110 
00111111 11111100 
00011111 11111000 
00001111 11110000 
00000111 11100000 