P1
#CreatedbyIrfanView
16 16
00000000 00000000
00011110 00110011
00011110 11001100
00011110 00000000
00011110 00000000
00011110 00110011
00011110 11001100
00011110 00000000
00011110 00000000
00011110 00110011
00011110 11001100
00011110 00000000
01111111 10000000
01111111 10000000
00000000 00000000
00000000 00000000