P1
# Created by IrfanView
16 16
00000011 11100000
00001111 11111000
00011111 11111100
00111111 11111110
00111111 11111110 
01111111 11111111
01100000 00010011
01100000 00010011
01100000 00010011
01111111 11111111 
00111111 11111110
00111111 11111110
00011111 11111100
00001111 11111000
00000011 11100000 
00000000 00000000 