P1
#CreatedbyIrfanView
16 16
00000000 00000000
00000000 00000000
00000000 10000000
00000000 10000000
00000000 10000000
01111110 10000000
00001000 10111110
01111000 10100000
00000000 10100000
01111000 10100000
00001000 10000000
00000000 10000000
00000000 10000000
00000000 00000000
00000000 00000000
00000000 00000000