P1
#CreatedbyIrfanView
16 16
00000000 00000000
00000000 00000000
00100100 10000000
00111110 10000000
00100000 10000000
00000000 10000000
00011100 10111110
00100010 10100000
00011100 10100000
00000000 10100000
00011100 10000000
00100010 10000000
00011100 10000000
00000000 00000000
00000000 00000000
00000000 00000000