P1
# Created by IrfanView
16 16
00000000 00000000 
00000000 00000000 
00111110 10000000 
00000010 10000000 
00001100 10000000
00000010 10000000 
00111110 10111110 
00000000 10100000 
00111110 10100000 
00000000 10000000 
00111110 10000000 
00000100 10000000 
00001000 10000000 
00111110 10000000 
00000000 00000000 
00000000 00000000 