P1
# Created by IrfanView
16 16
00000000 00000000 
00000000 00000000 
00001111 11100000 
00000111 11000000 
00000011 10000000 
00000001 00000000 
00000000 00000000 
00000000 00000000 
00000000 00011100 
00111111 11111110 
00111111 11111110 
00000000 00011100 
00000000 00000000 
00000000 00000000 
00000000 00000000 
00000000 00000000 