P1
# Created by IrfanView
16 16
00000000 00000000 
00011111 11111000 
00001111 11110000
00000111 11100000
00000011 11000000 
00000001 10000000
00000000 00000000
00000000 00000000
00000000 00011000
00000000 00111100 
01111111 11111110
00000000 00111100
00000000 00011000
00000000 00000000
00000000 00000000
00000000 00000000 