P1
#CreatedbyIrfanView
16 16
0000000000000000
0000011111100000
0100111111110000
0101110000111000
0111100000011100
0111000000001100
0111110000001110
0000000000000110
0000000000000110
0000000000001110
0011000000001100
0011100000011100
0001110000111000
0000111111110000
0000011111100000
0000000000000000