P1
16 195
0000000000000000
0000000000000000
0000000000000000
0000000000000000
0000000000000000
0000000000000000
0000000000000000
0000000000000000
0000000000000000
0000000000000000
0000000000000000
0000000000000000
0000000000000000
0000000000000000
0000000000000000
0000001100000000
0000001100000000
0000001100000000
0000001100000000
0000001100000000
0111111111111000
0111111111111000
0000001100000000
0000001100000000
0000001100000000
0000001100000000
0000001100000000
0000000000000000
0000000000000000
0110000000000000
0111100000000000
0011110000000000
0000110000000000
0000000000000000
0000000000000000
0000011100000000
0000011100000000
0000011100000000
0000011100000000
0000011100000000
0000011100000000
0000011100000000
0000000000000000
0000000000000000
0111000000000000
0111000000000000
0111000000000000
0000000000000000
0000000000000000
0111000000000000
0111111100000000
0000111111110000
0000000011111110
0000000000001110
0000000000000000
0000000000000000
0000011111100000
0001111111111000
0011111111111100
0111100000011110
0110000000000110
0110000000000110
0110000000000110
0110000000000110
0111100000011110
0011111111111100
0001111111111000
0000011111100000
0000000000000000
0000000000000000
0000000000000000
0000000000110000
0000000000111000
0000000000011000
0000000000011100
0000000000001100
0111111111111110
0111111111111110
0111111111111110
0000000000000000
0000000000000000
0000000000000000
0000000000000000
0000000000000000
0111000000011000
0111100000011100
0111100000011110
0111110000001110
0110110000000110
0110111000000110
0110011100000110
0110001110001110
0110001111111100
0110000111111100
0110000011111000
0000000000000000
0000000000000000
0000000000000000
0001100000011000
0011100000011100
0011100000011100
0111000000001110
0110000000000110
0110000110000110
0110000110000110
0110000110000110
0111001111001110
0011111111111100
0011111101111100
0001111001111000
0000000000000000
0000000000000000
0000011100000000
0000011110000000
0000011111000000
0000011011100000
0000011000111000
0000011000011100
0000011000001110
0111111111111110
0111111111111110
0111111111111110
0000011000000000
0000011000000000
0000000000000000
0000000000000000
0001100111111110
0011100111111110
0111100111111110
0111000011000110
0110000001100110
0110000001100110
0110000001100110
0110000001100110
0111000011100110
0011111111000110
0011111111000110
0000111110000000
0000000000000000
0000000000000000
0000011111100000
0001111111111000
0011111111111100
0111000110011100
0110000011000110
0110000011000110
0110000011000110
0110000011000110
0111000111001110
0011111111011110
0011111110011100
0001111100011000
0000000000000000
0000000000000000
0000000000000110
0000000000000110
0110000000000110
0111000000000110
0111110000000110
0011111100000110
0000111111000110
0000001111110110
0000000011111110
0000000000111110
0000000000011110
0000000000000000
0000000000000000
0000000000000000
0001111001111000
0011111101111100
0011111111111100
0111001111001110
0110000110000110
0110000110000110
0110000110000110
0110000110000110
0111001111001110
0011111111111100
0011111101111100
0001111001111000
0000000000000000
0000000000000000
0001100011111000
0011100111111100
0111101111111100
0111001110001110
0110001100000110
0110001100000110
0110001100000110
0110001100000110
0011100110001110
0011111111111100
0001111111111000
0000011111100000
0000000000000000
