P1
32 291
00000000000000000000000000000000
00000000000000000000000000000000
00000000001111111111110000000000
00000001111111111111111110000000
00000111111111111111111111100000
00001111111111111111111111110000
00011111111111111111111111111000
00111111111111111111111111111100
00111111110000000000001111111100
01111110000000000000000001111110
01111000000000000000000000011110
01111000000000000000000000011110
01111000000000000000000000011110
01111000000000000000000000011110
01111110000000000000000001111110
00111111110000000000001111111100
00111111111111111111111111111100
00011111111111111111111111111000
00001111111111111111111111110000
00000111111111111111111111100000
00000001111111111111111110000000
00000000001111111111110000000000
00000000000000000000000000000000
00000000000000000000000000000000
00000000000000000000000000000000
00000000000000000000000000000000
00000000000000000000000000000000
00000000000000000000000000000000
00000000000000000000000000000000
00000000000000000000111111000000
00000000000000000000011111100000
00000000000000000000011111100000
00000000000000000000001111110000
00000000000000000000001111110000
00000000000000000000000111111000
00000000000000000000000111111000
01111111111111111111111111111100
01111111111111111111111111111100
01111111111111111111111111111100
01111111111111111111111111111100
01111111111111111111111111111100
01111111111111111111111111111100
00000000000000000000000000000000
00000000000000000000000000000000
00000000000000000000000000000000
00000000000000000000000000000000
00000000000000000000000000000000
00000000000000000000000000000000
00000000000000000000000000000000
00000000000000000000000000000000
01111100000000000000000000000000
01111110000000000000001111000000
01111111000000000000001111110000
01111111100000000000001111111000
01111111110000000000001111111000
01111111111000000000001111111100
01111111111110000000001111111100
01111111111111000000000001111110
01111101111111100000000000111110
01111100111111110000000000011110
01111100011111111000000000011110
01111100001111111100000000011110
01111100000111111111000000111110
01111100000011111111100001111110
01111100000001111111111111111100
01111100000000111111111111111100
01111100000000011111111111111100
01111100000000001111111111111000
01111100000000000011111111110000
01111100000000000000111111000000
00000000000000000000000000000000
00000000000000000000000000000000
00000000000000000000000000000000
00000000000000000000000000000000
00000011100000000000000111000000
00001111100000000000000111110000
00011111100000000000000111111000
00111111100000000000000111111100
00111111100000000000000111111100
01111111100000000000000111111100
01111110000000111110000001111110
01111100000000111110000000111110
01111000000000111110000000011110
01111000000000111110000000011110
01111000000000111110000000011110
01111100000001111111000000111110
01111110000011111111100001111110
00111111111111111111111111111100
00111111111111110111111111111100
00011111111111110111111111111000
00001111111111100011111111111000
00000111111111100001111111110000
00000001111110000000111111000000
00000000000000000000000000000000
00000000000000000000000000000000
00000000000000000000000000000000
00000000000000000000000000000000
00000001111111000000000000000000
00000001111111100000000000000000
00000001111111111000000000000000
00000001111111111100000000000000
00000001111111111111000000000000
00000001111101111111100000000000
00000001111100011111110000000000
00000001111100001111111100000000
00000001111100000011111110000000
00000001111100000001111111100000
00000001111100000000011111110000
00000001111100000000001111111100
01111111111111111111111111111100
01111111111111111111111111111100
01111111111111111111111111111100
01111111111111111111111111111100
01111111111111111111111111111100
01111111111111111111111111111100
00000001111100000000000000000000
00000001111100000000000000000000
00000001111100000000000000000000
00000000000000000000000000000000
00000000000000000000000000000000
00000000000000000000000000000000
00000000000000000000000000000000
00000011100000111111111111000000
00001111100000111111111111111100
00011111100000111111111111111100
00111111100000111111111111111100
00111111100000111111111111111100
00111111100000111111111111111100
01111110000000011111000001111100
01111100000000001111000001111100
01111000000000000111100001111100
01111000000000000111100001111100
01111000000000000111100001111100
01111100000000000111100001111100
01111100000000001111100001111100
00111111000000111111100001111100
00111111111111111111000001111100
00011111111111111111000001111100
00001111111111111110000001111100
00000111111111111100000001111100
00000011111111111000000000000000
00000000111111100000000000000000
00000000000000000000000000000000
00000000000000000000000000000000
00000000000000000000000000000000
00000000000000000000000000000000
00000000011111111111100000000000
00000011111111111111111100000000
00001111111111111111111111000000
00011111111111111111111111110000
00111111111111111111111111111000
00111111111111111111111111111100
00111111000000111110000111111100
01111100000000001111000000111110
01111000000000000111000000111110
01111000000000000111100000011110
01111000000000000111100000011110
01111000000000000111100000011110
01111100000000001111100000111110
01111111000000111111100001111110
00111111111111111111000011111100
00111111111111111111000011111100
00011111111111111110000011111000
00001111111111111110000011110000
00000011111111111000000011100000
00000000111111100000000000000000
00000000000000000000000000000000
00000000000000000000000000000000
00000000000000000000000000000000
00000000000000000000000000000000
00000000000000000000000001111100
00000000000000000000000001111100
00000000000000000000000001111100
01000000000000000000000001111100
01111000000000000000000001111100
01111110000000000000000001111100
01111111100000000000000001111100
01111111111000000000000001111100
01111111111110000000000001111100
01111111111111110000000001111100
00111111111111111100000001111100
00000111111111111111000001111100
00000001111111111111110001111100
00000000011111111111111101111100
00000000000011111111111111111100
00000000000000111111111111111100
00000000000000001111111111111100
00000000000000000001111111111100
00000000000000000000011111111100
00000000000000000000000111111100
00000000000000000000000000000000
00000000000000000000000000000000
00000000000000000000000000000000
00000000000000000000000000000000
00000001111110000000011111000000
00000111111111000001111111110000
00001111111111100011111111111000
00011111111111110011111111111100
00111111111111111111111111111100
00111111111111111111111111111100
01111111000011111111100001111110
01111100000000111111000000111110
01111000000000011110000000011110
01111000000000011110000000011110
01111000000000011110000000011110
01111000000000011110000000011110
01111100000000111111000000111110
01111110000011111111100001111110
00111111111111111111111111111100
00111111111111111111111111111100
00011111111111110011111111111100
00001111111111100011111111111000
00000111111111100001111111110000
00000001111110000000011111000000
00000000000000000000000000000000
00000000000000000000000000000000
00000000000000000000000000000000
00000000000000000000000000000000
00000000000000000111111100000000
00000111000000011111111111000000
00001111000001111111111111110000
00011111000001111111111111111000
00111111000011111111111111111100
00111111000011111111111111111100
01111110000111111100000011111110
01111100000111110000000000111110
01111000000111100000000000011110
01111000000111100000000000011110
01111000000111100000000000011110
01111100000011100000000000011110
00111100000011110000000000111110
00111111100001111100000011111100
00111111111111111111111111111100
00011111111111111111111111111100
00001111111111111111111111111000
00000011111111111111111111110000
00000000111111111111111111000000
00000000000111111111111000000000
00000000000000000000000000000000
00000000000000000000000000000000
00000000000000000000000000000000
00000000000000000000000000000000
00110000000000000000000000000000
00111110000000000000000000000000
00111111110000000000000000000000
00111111111100000000000000000000
00111111111100000000000000000000
00001111111100000000000000000000
00000001111100000000000000000000
00000000011100000000000000000000
00000000000100000000000000000000
00000000000000000000000000000000
00000000000000000000000000000000
00000000000000000000000000000000
00000000000000000000000000000000
00000000000011110000000000000000
00000000000011110000000000000000
00000000000011110000000000000000
00000000000011110000000000000000
00000000000011110000000000000000
00000000000011110000000000000000
00000000000011110000000000000000
00000000000011110000000000000000
00000000000011110000000000000000
00000000000011110000000000000000
00000000000011110000000000000000
00000000000011110000000000000000
00000000000011110000000000000000
00000000000000000000000000000000
00000000000000000000000000000000
00000000000000000000000000000000
00000000000000000000000000000000
00000000000011110000000000000000
00000000000011110000000000000000
00000000000011110000000000000000
00000000000011110000000000000000
00000000000011110000000000000000
00000000000011110000000000000000
00000011111111111111110000000000
00000011111111111111110000000000
00000011111111111111110000000000
00000011111111111111110000000000
00000000000011110000000000000000
00000000000011110000000000000000
00000000000011110000000000000000
00000000000011110000000000000000
00000000000011110000000000000000
00000000000011110000000000000000
00000000000000000000000000000000
00000000000000000000000000000000
00000000000000000000000000000000
