P1
18 160
011111011111000000
000101000100000000
000111011111000000
000000000000000000
011111010001000000
010001011111010111
111111010001000000
000000000000000000
011111001001000011
000101010001000000
011010001111000011
000000000000000000
010010011111011111
010101001010001010
001001010001011111
000000000000000000
000001011111010010
011111010000011111
000001010000001001
000000000000000000
011111011111001001
010000000010000100
011111011111010010
000000000000000000
001111011111001010
010000001110010101
001111011111001010
000000000000011000
011111011111000000
001000010001000011
011111011111000000
000000000000000000
011011011111000000
000100000101001110
011011000111010001
000000000000000000
000111011111000000
011000010001010001
000111111111001110
000000000000000000
011001011111010101
010101000101001110
010011011010010101
000000000000000000
010001010010000100
001110010101001110
000100001001000100
000000000000000000
000000000001010000
011111011111001000
000000000001000000
000000000000000000
000100011111000100
001110010000000100
010001011111000100
000000000000000000
000010001111000000
000001010000010000
000010001111000000
000001000000000000
000000011111001000
000000001000000100
000000011111000010
000000000000000000
000000011011001110
000000000100010001
000000011011001110
000000000000000000
000000000111010010
000000011000011111
000000000111010000
000000000000000000
000000011001010010
000000010101011001
000000010011010110
000000000000000000
000000011111010001
000000010001010101
000000010001001010
000000000000000000
000000000011001100
000000000100001010
000000011000011111
000000000000000000
000000010001010111
000000010001010101
000000011111001001
000000000000000000
000000000010011110
000000000001010101
000000000010011101
000000000000000000
000000100000011001
000000100000000101
000000100000000011
000000000000000000
000000000001001010
000000000010010101
000000000000001010
000000000000000000
000000011110010111
000000000101010101
000000011110001111
000000000000000000
000000011111000000
000000010101010100
000000001010000000
000000000000000000
000000001110100000
000000010001010100
000000001010000000
000000000000000000
000000011111000100
000000010001001010
000000001110010001
000000000000000000
000000011111001010
000000010101001010
000000010001001010
000000000000000000
000000011111010001
000000000101001010
000000000001000100
000000000000000000
000000001110000001
000000010101010101
000000011101000010
000000000000000000
000000011111011010
000000000100011001
000000011111011110
000000000000000000
000000010001011110
000000011111000101
000000010001011110
000000000000000000
000000001001011111
000000010001010101
000000001111001010
000000000000000000
000000011111001110
000000001010010001
000000010001001010
000000000000000000
000000011111011111
000000010000010001
000000010000001110
000000000000000000
000000011111011111
000000000010010101
000000011111010001
000000000000000000
000000011111011111
000000001110000101
000000011111000001
000000000000000000
000000011111001110
000000010001010101
000000011111011101
000000000000000000
