P1
240 112
000000000000000000000000000000000000000000000000000000000000000000000
000000000000000000000000000000000000000000000000000000000000000000000
000000000000000000000000000000000000000000000000000000000000000000000
000000000000000000000000000000000
000000000000000000000000000000000001100000000000000000000000000000000
000000000000000000000000000000000000000000000000000000000000000000000
000000000000000000000000000000000000000000000000000000000000000000000
000000000000000000000000000000000
000000000000000001100110000000000001100000000000000000000011000000000
000000000000000000000000000000000000000000000000000000000000000000000
000000000000000000000000000000000000000000000000000000000000000000000
000000000000000000000000000000000
000000000001100001100110000000000111110000000000001110000011000000001
100001100000000000000000000000000000000000000000000000000000011100000
011000011111000111110000001100111111100011100011111110011111000111110
000000000000000000000000000000000
000000000011110001100110011011001100011000000000011011000011000000011
000000110000000000000000000000000000000000000000000000000000110110000
111000110001101100011000011100110000000110000011000110110001101100011
000000000000000000000011000000000
000000000011110000100100011011001100001011000010011011000110000000110
000000011000000000000000000000000000000000000000000000000101100011001
111000000001100000011000111100110000001100000000000110110001101100011
000011000000110000000110000000000
000000000011110000000000111111101100000011000110001110000000000000110
000000011000110011000011000000000000000000000000000000001101100011000
011000000011000000011001101100110000001100000000000110110001101100011
000011000000110000001100001111110
000000000001100000000000011011000111110000001100011101100000000000110
000000011000011110000011000000000000000000000000000000011001100011000
011000000110000011110011001100111111001111110000001100011111000111111
000000000000000000011000000000000
000000000001100000000000011011000000011000011000110111000000000000110
000000011001111111101111110000000001111111000000000000110001100011000
011000001100000000011011111110000001101100011000011000110001100000011
000000000000000000110000000000000
000000000001100000000000011011000000011000110000110011000000000000110
000000011000011110000011000000000000000000000000000001100001100011000
011000011000000000011000001100000001101100011000110000110001100000011
000000000000000000011000001111110
000000000000000000000000111111101000011001100000110011000000000000110
000000011000110011000011000000110000000000000000000011000001100011000
011000110000000000011000001100000001101100011000110000110001100000011
000011000000110000001100000000000
000000000001100000000000011011001100011011000110110011000000000000011
000000110000000000000000000000110000000000000011000110000000110110000
011000110001101100011000001100110001101100011000110000110001100000110
000011000000110000000110000000000
000000000001100000000000011011000111110010000110011101100000000000001
100001100000000000000000000000110000000000000011000100000000011100001
111110111111100111110000011110011111000111110000110000011111000111100
000000000001100000000011000000000
000000000000000000000000000000000001100000000000000000000000000000000
000000000000000000000000000001100000000000000000000000000000000000000
000000000000000000000000000000000000000000000000000000000000000000000
000000000000000000000000000000000
000000000000000000000000000000000001100000000000000000000000000000000
000000000000000000000000000000000000000000000000000000000000000000000
000000000000000000000000000000000000000000000000000000000000000000000
000000000000000000000000000000000
000000000000000000000000000000000000000000000000000000000000000000000
000000000000000000000000000000000000000000000000000000000000000000000
000000000000000000000000000000000000000000000000000000000000000000000
000000000000000000000000000000000
000000000000000000000000000000000000000000000000000000000000000000000
000000000000000000000000000000000000000000000000000000000000000000000
000000000000000000000000000000000000000000000000000000000000000000000
000000000000000000000000000000000
000000000000000000000000000000000000000000000000000000000000000000000
000000000000000000000000000000000000000000000000000000000000000000000
000000000000000000000000000000000000000000000000000000000000000000000
000000000000000000000000000000000
000000000000000000000000000000000000000000000000000000000000000000000
000000000000000000000000000000000000000000000000000000000000000000000
000000000000000000000000000000000000000000000000000000000000000000000
000000000000000000000000000000000
000000000111110000000000000100001111110000111100111110001111111011111
110001111001100011000111100000111101110011011110000110001101100011001
111100111111000111110011111100011111000111111011000110110001101100011
011000110011001101111111000111100
011000001100011001111100001110000110011001100110011011000110011001100
110011001101100011000011000000011000110011001100000111011101110011011
000110011001101100011001100110110001100111111011000110110001101100011
011000110011001101100011000110000
001100001100011011000110011011000110011011000010011001100110001001100
010110000101100011000011000000011000110011001100000111111101111011011
000110011001101100011001100110110001100101101011000110110001101100011
001101100011001101000011000110000
000110000000110011000110110001100110011011000000011001100110100001101
000110000001100011000011000000011000110110001100000111111101111111011
000110011001101100011001100110011000000001100011000110110001101100011
001111100011001100000110000110000
000011000001100011011110110001100111110011000000011001100111100001111
000110000001111111000011000000011000111100001100000110101101101111011
000110011111001100011001111100001110000001100011000110110001101101011
000111000001111000001100000110000
000001100001100011011110111111100110011011000000011001100110100001101
000110111101100011000011000000011000111100001100000110001101100111011
000110011000001100011001101100000011000001100011000110110001101101011
000111000000110000011000000110000
000011000001100011011110110001100110011011000000011001100110000001100
000110001101100011000011000110011000110110001100000110001101100011011
000110011000001100011001100110000001100001100011000110110001101101011
001111100000110000110000000110000
000110000000000011011100110001100110011011000010011001100110001001100
000110001101100011000011000110011000110011001100010110001101100011011
000110011000001101011001100110110001100001100011000110011011001111111
001101100000110001100001000110000
001100000001100011000000110001100110011001100110011011000110011001100
000011001101100011000011000110011000110011001100110110001101100011011
000110011000001101111001100110110001100001100011000110001110001110111
011000110000110001100011000110000
011000000001100001111100110001101111110000111100111110001111111011110
000001110101100011000111100011110001110011011111110110001101100011001
111100111100000111110011100110011111000011110001111100000100000110110
011000110001111001111111000111100
000000000000000000000000000000000000000000000000000000000000000000000
000000000000000000000000000000000000000000000000000000000000000000000
000000000000000000110000000000000000000000000000000000000000000000000
000000000000000000000000000000000
000000000000000000000000000000000000000000000000000000000000000000000
000000000000000000000000000000000000000000000000000000000000000000000
000000000000000000111000000000000000000000000000000000000000000000000
000000000000000000000000000000000
000000000000000000000000000000000000000000000000000000000000000000000
000000000000000000000000000000000000000000000000000000000000000000000
000000000000000000000000000000000000000000000000000000000000000000000
000000000000000000000000000000000
000000000000000000000000000000000000000000000000000000000000000000000
000000000000000000000000000000000000000000000000000000000000000000000
000000000000000000000000000000000000000000000000000000000000000000000
000000000000000000000000000000000
000000000000000000010000000000000000000000000000000000000000000000000
000000000000000000000000000000000000000000000000000000000000000000000
000000000000000000000000000000000000000000000000000000000000000000000
000000000000000000000000000000000
000000000000000000111000000000000011000000000000000000000000000000000
000000000000000000000000000000000000000000000000000000000000000000000
000000000000000000000000000000000000000000000000000000000000000000000
000000000000000000000000000000000
000000000011110001101100000000000001100000000000111000000000000000011
100000000000001110000000000111000000001100000000110111000000011100000
000000000000000000000000000000000000000000000000000000000100000000000
000000000000000000000000000000000
100000000000110011000110000000000000110000000000011000000000000000001
100000000000011011000000000011000000001100000000110011000000001100000
000000000000000000000000000000000000000000000000000000001100000000000
000000000000000000000000000000000
110000000000110000000000000000000000000000000000011000000000000000001
100000000000011001000000000011000000000000000000000011000000001100000
000000000000000000000000000000000000000000000000000000001100000000000
000000000000000000000000000000000
111000000000110000000000000000000000000001111000011110000111110000111
100011111000011000001110110011011000011100000001110011001100001100011
101100110111000111110011011100011101101101110001111100111111001100110
011000110110001101100011011000110
011100000000110000000000000000000000000000001100011011001100011001101
100110001100111100011001100011101100001100000000110011011000001100011
111110011001101100011001100110110011000111011011000110001100001100110
011000110110001100110110011000110
001110000000110000000000000000000000000001111100011001101100000011001
100111111100011000011001100011001100001100000000110011110000001100011
010110011001101100011001100110110011000110011001100000001100001100110
011000110110101100011100011000110
000111000000110000000000000000000000000011001100011001101100000011001
100110000000011000011001100011001100001100000000110011110000001100011
010110011001101100011001100110110011000110000000111000001100001100110
011000110110101100011100011000110
000011100000110000000000000000000000000011001100011001101100000011001
100110000000011000011001100011001100001100000000110011011000001100011
010110011001101100011001100110110011000110000000001100001100001100110
011000110110101100011100011000110
000001100000110000000000000000000000000011001100011001101100011011001
100110001100011000011001100011001100001100000000110011001100001100011
010110011001101100011001100110110011000110000011000110001101101100110
001101100111111100110110011000110
000000100011110000000000000000000000000001110110011111000111110001110
110011111000111100001111100111001100011110000000110111001100011110011
000110011001100111110001111100011111001111000001111100000111000111011
000111000011011001100011001111110
000000000000000000000000000000000000000000000000000000000000000000000
000000000000000000000001100000000000000000001100110000000000000000000
000000000000000000000001100000000011000000000000000000000000000000000
000000000000000000000000000000110
000000000000000000000000111111110000000000000000000000000000000000000
000000000000000000011001100000000000000000001100110000000000000000000
000000000000000000000001100000000011000000000000000000000000000000000
000000000000000000000000000001100
000000000000000000000000000000000000000000000000000000000000000000000
000000000000000000001111000000000000000000000111100000000000000000000
000000000000000000000011110000000111100000000000000000000000000000000
000000000000000000000000011111000
000000000000000000000000000000000000000000000000000000000000000000000
000000000000000000000000000000000000000000000000000000000000000000000
000000000000000000000000000000000000000000000000000000000000000000000
000000000000000000000000000000000
000000000000000000000000000000000000000000000000000000000000000000000
000000000000000000000000000000000000000000000000000000000000000000000
000000000000001111111000000000000000000111100001111000000000000000000
000000000000000000000000001100000
000000000000000000000000000000000111011000000000000000000000000000000
000000000000000000000000000110001100000000000000000000000000000000000
000000000000000000000001110000000000001000110010001100000011100000000
000000000000000000000000011100000
000000000000111000011000011100001101110000011000000000000001110000000
000011001100001100000111100110001100000000001110000000000000000000000
000000000000000000000011011000000000000000110000001100000110000000000
001111110000000000000000001100000
000000000001100000011000000110000000000000011000000100000011000000000
000001111000001100001100100000000000000000000001000000000000000000000
000000000000000000000010001000000000000001100001111000001000000000000
011010100000000000000000001100000
000000000001100000011000000110000000000000000000000100000011000001000
010000110000001100001100000000000000111111001111000000000000000000000
000000011111000000000011011000000100000011000000001100000000000000000
011010100000000000000000001100000
111111100001100000011000000110000000000000011000011111000011000000111
100011111100001100000111000000000000100001010001000001101100000000000
000000010001000000000001110000000100000110000010001100000000000110011
011010100000000000000000001100000
110011000111000000011000000011100000000000011000110100000111100000100
100000110000000000001000100000000000101101010001000011011000000000000
000000010101000000000000000000011111001111110001111000000000000110011
001110100001110000000000011110000
000110000001100000011000000110000000000000011000110100000011000000100
100000110000000000001000100000000000101111001110100110110001111110001
111100010001000000000000000000000100000000000000000000000000000110011
000010100001110000000000000000000
001100000001100000011000000110000000000000111100110100000011000000111
100011111100001100000111000000000000101101000000000011011000000010000
000000010011000000000000000000000100000000000000000000000000000110011
000010100001110000000000000000000
011000000001100000011000000110000000000000111100110100000011000001000
010000110000001100000001100000000000100001000000000001101100000010000
000000010101000000000000000000000000000000000000000000000000000110011
000010100000000000000000000000000
110001100001100000011000000110000000000000111100110101100011001000000
000000110000001100001001100000000000111111000000000000000000000000000
000000011111000000000000000000011111000000000000000000000000000110011
000010100000000000000000000000000
111111100000111000011000011100000000000000011000011111000101110000000
000000110000001100001111000000000000000000000000000000000000000000000
000000000000000000000000000000000000000000000000000000000000000111110
000111110000000000000000000000000
000000000000000000000000000000000000000000000000000100000000000000000
000000000000000000000000000000000000000000000000000000000000000000000
000000000000000000000000000000000000000000000000000000000000000110000
000000000000000000001100000000000
000000000000000000000000000000000000000000000000000100000000000000000
000000000000000000000000000000000000000000000000000000000000000000000
000000000000000000000000000000000000000000000000000000000000000110000
000000000000000000011000000000000
000000000000000000000000000000000000000000000000000000000000000000000
000000000000000000000000000000000000000000000000000000000000000000000
000000000000000000000000000000000000000000000000000000000000001100000
000000000000000000000000000000000
000000000000000000000000000000000000000000000000000000000000000000000
000000000000000000000000000000000000000000000000000000000000000000000
000000000000000000000000000000000000000000000000000000000000000000000
000000000000000000000000000000000
000000000000000000000000000000000000000000000000011100000001110000111
000011101101100011000010000000000000000000001110000000111000011100011
000110011100000001110000111000110001100000000001110110011100000001110
000111000011101101100011000000000
000000000000000000000000000000000000000000000000000110000011000001101
100110111001100011000101000000000000000000000011000001100000110110011
000110000110000011000001101100110001100000000011011100000110000011000
001101100110111001100011000000000
001111000000000001000000010000001100000000110000000000000000000000000
000000000000000000000010000000111100011110000000000000000000000000000
000000000000000000000000000000000000001111110000000000000000000000000
000000000000000000000000000000000
011001100000000011000000110000000010000000110000001110000011100000111
000001110000011100000000000011110100110011011111110111111101111111011
111110001111000011110000111100001111000110011011000110011111000111110
001111100011111000111110000000000
011001100000000001000100010001000100010000000000011011000110110001101
100011011000110110001111100110110001100001001100110011001100110011001
100110000110000001100000011000000110000110011011100110110001101100011
011000110110001101100011000000000
011001101101100001001000010010000010100000110000110001101100011011000
110110001101100011011000110110110001100000001100010011000100110001001
100010000110000001100000011000000110000110011011110110110001101100011
011000110110001101100011001100110
001111000110110000010000000100001101000000110000110001101100011011000
110110001101100011011000110110110001100000001101000011010000110100001
101000000110000001100000011000000110001111011011111110110001101100011
011000110110001101100011000111100
000000000011011000100100001011000010010000110000111111101111111011111
110111111101111111011111110111111101100000001111000011110000111100001
111000000110000001100000011000000110001111011011011110110001101100011
011000110110001101100011000011000
000000000110110001001100010100100100110001100000110001101100011011000
110110001101100011011000110110110001100000001101000011010000110100001
101000000110000001100000011000000110000110011011001110110001101100011
011000110110001101100011000111100
000000001101100010010100100001001001010011000110110001101100011011000
110110001101100011011000110110110001100001001100010011000100110001001
100010000110000001100000011000000110000110011011000110110001101100011
011000110110001101100011001100110
000000000000000000011110000010000001111011000110110001101100011011000
110110001101100011011000110110110100110011001100110011001100110011001
100110000110000001100000011000000110000110011011000110110001101100011
011000110110001101100011000000000
000000000000000000000100000111100000010001111100110001101100011011000
110110001101100011011000110110111100011110011111110111111101111111011
111110001111000011110000111100001111001111110011000110011111000111110
001111100011111000111110000000000
000000000000000000000000000000000000000000000000000000000000000000000
000000000000000000000000000000000000001100000000000000000000000000000
000000000000000000000000000000000000000000000000000000000000000000000
000000000000000000000000000000000
000000000000000000000000000000000000000000000000000000000000000000000
000000000000000000000000000000000000011000000000000000000000000000000
000000000000000000000000000000000000000000000000000000000000000000000
000000000000000000000000000000000
000000000000000000000000000000000000000000000000000000000000000000000
000000000000000000000000000000000000000000000000000000000000000000000
000000000000000000000000000000000000000000000000000000000000000000000
000000000000000000000000000000000
000000000000000000000000000000000000000000000000000000000000000000000
000000000000000000000000000000000000000000000000000000000000000000000
000000000000000000000000000000000000000000000000000000000000000000000
000000000000000000000000000000000
000000000111000000011100001110001100011000011100000000000000000000000
000000000000000000000000000000000000000000000000000000000000000000000
000000000000000000000000000000000000000000000000000000000000000000000
000000000000000000000000000000000
000000000001100000110000011011001100011000110000000000000000000000000
000000000000001000001110110110001100011000000000000000000000000000000
000000000100001100011000000000000000000001000011000110000000000111011
000000000000000000001000001110110
011111000000000000000000000000000000000001100110111100000011100001110
000000111000011100011011100110001100100100000000000000000000111000000
011100001110001100011001110000000111000011100011000110110100001101110
001110000000111000011100011011100
110001101100011011000110110001101100011001100110011000000110110000011
000001100000110110000000000000000000011000000000000000000000001100000
110000011011000000000000011000001100000110110000000000011000000000000
000011000001100000110110000000000
110011101100011011000110110001101100011001100110011111000110110000000
000000000000000000000000000000000000000000000000000000000000000000000
000000000000000000000000000000000000000000000000000000101100000000000
000000000000000000000000000000000
110011101100011011000110110001101100011001100110011001100110110001111
000011110000111100001111000011110000111100011001100011111000111110001
111100011111000111110000111000001110000011100000111000000110001101110
001111100011111000111110001111100
110101101100011011000110110001101100011000111100011001100111100000001
100000011000000110000001100000011000000110000110010110001101100011011
000110110001101100011000011000000110000001100000011000011111000110011
011000110110001101100011011000110
110101101100011011000110110001101100011000011000011001100110110001111
100011111000111110001111100011111000111110000111110110000001111111011
111110111111101111111000011000000110000001100000011000110001100110011
011000110110001101100011011000110
111001101100011011000110110001101100011000011000011001100110011011001
100110011001100110011001100110011001100110001110000110000001100000011
000000110000001100000000011000000110000001100000011000110001100110011
011000110110001101100011011000110
111001101100011011000110110001101100011000011000011111000110011011001
100110011001100110011001100110011001100110010110000110000001100000011
000000110000001100000000011000000110000001100000011000110001100110011
011000110110001101100011011000110
110001101100011011000110110001101100011000011000011000000110011011001
100110011001100110011001100110011001100110010110010110001101100011011
000110110001101100011000011000000110000001100000011000110001100110011
011000110110001101100011011000110
011111000111110001111100011111000111110000111100111100000110110001110
110011101100111011001110110011101100111011001101100011111000111110001
111100011111000111110000111100001111000011110000111100011111000110011
001111100011111000111110001111100
000000000000000000000000000000000000000000000000000000000110000000000
000000000000000000000000000000000000000000000000000000110000000000000
000000000000000000000000000000000000000000000000000000000000000000000
000000000000000000000000000000000
000000000000000000000000000000000000000000000000000000001100000000000
000000000000000000000000000000000000000000000000000001100000000000000
000000000000000000000000000000000000000000000000000000000000000000000
000000000000000000000000000000000
000000000000000000000000000000000000000000000000000000000000000000000
000000000000000000000000000000000000000000000000000000000000000000000
000000000000000000000000000000000000000000000000000000000000000000000
000000000000000000000000000000000
000000000000000000000000000000000000000000000000000000000000000000000
000000000000000000000000000000000000000000000000000000000000000000000
000000000000000000000000000000000000000000000000000000000000000000000
000000000000000000000000000000000
000000000000000000000000000000000000000000000000000000000000000000000
000000000000000000000000000000000000000000000000000000000000000000000
000000000000000000000000000000000000000000000000000000000000000000000
000000000000000000000000000000000
110001100000000000000000000000000000000000010000110001100000000000000
000110001100000000000000000000000000000000000000000000000000000000000
000000000000000000000000000000000000000000000000000000000000000000000
000000000000000000000000000000000
110001100000000000000000000111000111000000111000110001100001110011100
000110001100000000000000000000000000000000000000000000000000000000000
000000000000000000000000000000000000000000000000000000000000000000000
000000000000000000000000000000000
000000000000000000000000001100000001100001101100000000000011000001100
000000000000000000000000000000000000000000000000000000000000000000000
000000000000000000000000000000000000000000000000000000000000000000000
000000000000000000000000000000000
000000000001100000000000000000000000000000000000000000000000000001100
000000000000000000000000000000000000000000000000000000000000000000000
000000000000000000000000000000000000000000000000000000000000000000000
000000000000000000000000000000000
011111000001100000111010110011001100110011001100110011001100011001111
000110001100000000000000000000000000000000000000000000000000000000000
000000000000000000000000000000000000000000000000000000000000000000000
000000000000000000000000000000000
110001100000000001000100110011001100110011001100110011001100011001101
100110001100000000000000000000000000000000000000000000000000000000000
000000000000000000000000000000000000000000000000000000000000000000000
000000000000000000000000000000000
110001100111111011001110110011001100110011001100110011001100011001101
100110001100000000000000000000000000000000000000000000000000000000000
000000000000000000000000000000000000000000000000000000000000000000000
000000000000000000000000000000000
110001100000000011010110110011001100110011001100110011001100011001111
000110001100000000000000000000000000000000000000000000000000000000000
000000000000000000000000000000000000000000000000000000000000000000000
000000000000000000000000000000000
110001100001100011100110110011001100110011001100110011001100011001100
000110001100000000000000000000000000000000000000000000000000000000000
000000000000000000000000000000000000000000000000000000000000000000000
000000000000000000000000000000000
110001100001100001000100110011001100110011001100110011001100011001100
000110001100000000000000000000000000000000000000000000000000000000000
000000000000000000000000000000000000000000000000000000000000000000000
000000000000000000000000000000000
011111000000000010111000011101100111011001110110011101100111111011110
000011111100000000000000000000000000000000000000000000000000000000000
000000000000000000000000000000000000000000000000000000000000000000000
000000000000000000000000000000000
000000000000000000000000000000000000000000000000000000000000011000000
000000001100000000000000000000000000000000000000000000000000000000000
000000000000000000000000000000000000000000000000000000000000000000000
000000000000000000000000000000000
000000000000000000000000000000000000000000000000000000000000110000000
000000011000000000000000000000000000000000000000000000000000000000000
000000000000000000000000000000000000000000000000000000000000000000000
000000000000000000000000000000000
000000000000000000000000000000000000000000000000000000001111100000000
000111110000000000000000000000000000000000000000000000000000000000000
000000000000000000000000000000000000000000000000000000000000000000000
000000000000000000000000000000000
