P1
16 16
0000011111100000
0001111111111000
0011100110011100
0110000110000110
0110000110000110
1100000110000011
1100000110000011
1100000111111011
1100000111111011
1100000000000011
1100000000000011
0110000000000110
0110000000000110
0011100000011100
0001111111111000
0000011111100000
