P1
16 29
0001111100000000
0011101110001000
0110000011001100
0110000011000100
1100110001100110
1100111001100110
0110001111000110
0110000011101100
0011101110111110
0001111100011111
0000000000110111
0000000001111011
0000001111111110
0000011111111110
0000011111111100
0000011111111000
0000011111110000
0000011111110000
0000011011110000
0001111100111000
0011111110011000
0110011011001100
0110010011001100
1100110001100110
1100110001100110
0110000011000110
0110000011000110
0011101110000010
0001111100000000
