P1
16 16
1000000000000000
1111111111111111
1111111111000001
1111111111000001
1111111111000001
1111111111000001
1111111111000001
1111111111000001
1111111111000001
1111111111111111
1000000001000000
0011111110000000
0100000000000001
0100000000001110
0100011111111100
0011100000011000
