P1
16 16
0000011111100000
0001111111111000
0011100001111100
0110000001100110
0110000011100110
1100000011000011
1100000011000011
1100000111000011
1100000110000011
1100000110000011
1100000000000011
0110000000000110
0110000000000110
0011100000011100
0001100000011000
0000000000000000
